<svg version="1.2" xmlns="http://www.w3.org/2000/svg" viewBox="0 0 256 45" width="256" height="45">
	<title>five_star_rating-svg</title>
	<style>
		.s0 { fill: #ffff00 } 
	</style>
	<g id="Layer">
		<g id="Layer">
			<g id="Layer">
				<path id="Layer" class="s0" d="m27.2 9.2c-1.7 3.4-3.1 6.2-3.2 6.3-0.1 0.1-3.1 0.6-6.8 1.1-3.7 0.5-6.9 1.2-7.2 1.5-0.3 0.3 1.1 2.1 4.6 5.5l5.1 5-1.1 6.9c-0.6 3.8-0.9 7.1-0.7 7.3 0.2 0.2 3.2-1.1 6.7-2.9l6.3-3.3 6.3 3.3c3.4 1.8 6.5 3.1 6.7 2.9 0.2-0.2-0.2-3.5-0.8-7.3l-1.1-7 4.8-4.5c2.8-2.6 4.8-4.9 4.8-5.5 0-0.5-0.1-0.9-0.3-0.9-0.3 0-10.1-1.4-12.1-1.7-1.5-0.3-1.8-0.6-4.6-6.5-1.9-4-3.2-6.2-3.7-6.2-0.4-0.1-1.7 2.1-3.7 6z"/>
				<path id="Layer" class="s0" d="m78.8 3.7c-0.3 0.3-1.8 3.1-3.3 6.2-2.5 5.1-2.9 5.6-4.4 5.9-0.9 0.1-3.9 0.6-6.6 1-2.7 0.4-5.2 1-5.5 1.3-0.3 0.3 1.3 2.2 4.6 5.6l5 5.1-1.2 6.7c-0.8 4.5-1 6.8-0.7 7.2 0.3 0.3 2.5-0.5 6.7-2.7l6.2-3.2 6.2 3.2c4 2 6.4 3 6.7 2.7 0.3-0.3 0.1-2.9-0.7-7.2l-1.2-6.7 5.1-5.1c3.6-3.7 4.9-5.3 4.5-5.6-0.3-0.3-3.5-1-7.2-1.5-3.7-0.5-6.7-1.1-6.8-1.3-1.1-2.7-6-11.8-6.4-12-0.3-0.1-0.8 0.1-1 0.4z"/>
				<path id="Layer" class="s0" d="m125 9.2c-1.7 3.4-3.1 6.2-3.2 6.3-0.1 0.1-3.1 0.6-6.8 1.1-3.7 0.5-6.9 1.2-7.2 1.5-0.3 0.3 1.1 2.1 4.6 5.5l5.2 5-1.1 6.9c-0.6 3.8-1 7.1-0.7 7.3 0.2 0.2 3.2-1.1 6.7-2.9l6.3-3.3 6.3 3.3c3.4 1.8 6.5 3.1 6.7 2.9 0.2-0.2-0.1-3.5-0.8-7.3l-1.1-7 4.8-4.5c2.8-2.6 4.8-4.9 4.8-5.5 0-0.5-0.1-0.9-0.3-0.9-0.3 0-10.1-1.4-12.1-1.7-1.5-0.3-1.8-0.7-4.6-6.5-1.9-4-3.2-6.2-3.7-6.2-0.5-0.1-1.9 2.1-3.8 6z"/>
				<path id="Layer" class="s0" d="m175.2 4.2c-0.4 0.6-1.8 3.4-3.1 6.1-1.3 2.7-2.4 5-2.4 5.1-0.1 0.1-3 0.5-6.7 1.1-3.6 0.5-6.9 1.2-7.2 1.5-0.3 0.3 0.9 1.9 4.5 5.6l5.1 5.1-1.2 6.7c-0.8 4.5-1 6.8-0.7 7.2 0.3 0.3 2.5-0.5 6.7-2.7l6.2-3.2 6.2 3.2c4.2 2.1 6.4 3 6.7 2.7 0.3-0.3 0.1-2.7-0.7-7.2l-1.2-6.7 5.1-5.1c3.4-3.4 4.9-5.3 4.5-5.6-0.3-0.3-3.5-0.9-7.2-1.5-3.9-0.6-6.8-1.3-6.9-1.6-0.8-2-5.9-11.6-6.4-11.7-0.3-0.1-0.9 0.4-1.3 1z"/>
				<path id="Layer" class="s0" d="m221.2 9.3c-2.8 5.8-3.1 6.2-4.6 6.5-0.9 0.1-3.9 0.6-6.8 1-2.9 0.4-5.4 1-5.7 1.3-0.3 0.3 1.2 2.2 4.7 5.5l5.1 5-1.1 6.9c-0.6 3.8-1 7.1-0.7 7.3 0.2 0.2 3.2-1.1 6.7-2.9l6.3-3.3 6.3 3.3c3.4 1.8 6.5 3.1 6.7 2.9 0.3-0.2-0.1-3.5-0.7-7.3l-1.1-6.8 5.1-5.1c3.6-3.4 5-5.2 4.7-5.5-0.3-0.3-3.5-0.9-7.2-1.5-3.6-0.5-6.7-1-6.8-1.1-0.1-0.1-1.5-2.9-3.1-6.3-2-4-3.3-6.1-3.8-6.1-0.7 0-2 2.1-4 6.2z"/>
			</g>
		</g>
	</g>
</svg>