<?xml version="1.0" encoding="UTF-8"?>
<svg version="1.1" xmlns="http://www.w3.org/2000/svg" width="128" height="128">
<path d="M0 0 C6.29893241 4.94582841 10.28580324 11.73021113 11.859375 19.59375 C11.94647606 21.70199137 11.977054 23.81281577 11.97290039 25.92285156 C11.97278709 27.84439056 11.97278709 27.84439056 11.97267151 29.80474854 C11.96756526 31.19795775 11.96234927 32.59116657 11.95703125 33.984375 C11.95516532 35.41355337 11.95374224 36.84273238 11.95274353 38.27191162 C11.94893215 42.02675148 11.93911367 45.78155243 11.92803955 49.53637695 C11.91779575 53.37060012 11.91323955 57.20482959 11.90820312 61.0390625 C11.89749013 68.55731143 11.87990453 76.0755203 11.859375 83.59375 C2.949375 83.59375 -5.960625 83.59375 -15.140625 83.59375 C-15.18960938 80.06558594 -15.23859375 76.53742188 -15.2890625 72.90234375 C-15.34312044 69.47350945 -15.40040909 66.04474323 -15.45800781 62.6159668 C-15.496217 60.23874005 -15.53108375 57.86145708 -15.5625 55.48413086 C-15.60832539 52.06083119 -15.66629168 48.63791589 -15.7265625 45.21484375 C-15.73811371 44.15728378 -15.74966492 43.09972382 -15.76156616 42.01011658 C-15.87125807 36.48674257 -16.31306101 31.81431608 -18.140625 26.59375 C-18.635625 25.10875 -18.635625 25.10875 -19.140625 23.59375 C-23.6590508 20.82439225 -29.0235966 20.95412145 -34.140625 21.59375 C-38.42297925 23.46241367 -39.7624442 24.79848722 -41.76879883 29.01757812 C-43.65783246 34.3779621 -43.61814832 39.68062895 -43.65234375 45.3125 C-43.67029495 46.41098267 -43.68824615 47.50946533 -43.70674133 48.64123535 C-43.76061697 52.12536868 -43.7946676 55.60936679 -43.828125 59.09375 C-43.86131808 61.46616455 -43.89580956 63.83856132 -43.93164062 66.2109375 C-44.01875754 72.00522537 -44.07902297 77.79891082 -44.140625 83.59375 C-53.050625 83.59375 -61.960625 83.59375 -71.140625 83.59375 C-71.16317549 72.52839779 -71.18153978 61.46306072 -71.19243717 50.39769077 C-71.19766613 45.26015434 -71.20476401 40.12263437 -71.21606445 34.98510742 C-71.22689287 30.0314359 -71.23290174 25.07778026 -71.23550224 20.12409782 C-71.23735657 18.22977384 -71.24097734 16.33545076 -71.24635506 14.4411335 C-71.25356489 11.79740614 -71.25461597 9.15374529 -71.25415039 6.51000977 C-71.25774567 5.71879227 -71.26134094 4.92757477 -71.26504517 4.11238098 C-71.25467716 -1.29219784 -71.25467716 -1.29219784 -70.140625 -2.40625 C-68.21394993 -2.49373207 -66.28410639 -2.51322334 -64.35546875 -2.50390625 C-62.60073242 -2.49907227 -62.60073242 -2.49907227 -60.81054688 -2.49414062 C-58.96299805 -2.48157227 -58.96299805 -2.48157227 -57.078125 -2.46875 C-55.22477539 -2.46198242 -55.22477539 -2.46198242 -53.33398438 -2.45507812 C-50.26948383 -2.44324608 -47.20507779 -2.42676173 -44.140625 -2.40625 C-43.810625 0.23375 -43.480625 2.87375 -43.140625 5.59375 C-42.6559375 5.12324219 -42.17125 4.65273438 -41.671875 4.16796875 C-30.59524661 -6.12051493 -13.15330118 -8.64085479 0 0 Z " fill="#EDF1F7" transform="translate(116.140625,44.40625)"/>
<path d="M0 0 C8.91 0 17.82 0 27 0 C27 28.38 27 56.76 27 86 C17.76 86 8.52 86 -1 86 C-1.02255049 74.93464779 -1.04091478 63.86931072 -1.05181217 52.80394077 C-1.05704113 47.66640434 -1.06413901 42.52888437 -1.07543945 37.39135742 C-1.08626787 32.4376859 -1.09227674 27.48403026 -1.09487724 22.53034782 C-1.09673157 20.63602384 -1.10035234 18.74170076 -1.10573006 16.8473835 C-1.11293989 14.20365614 -1.11399097 11.55999529 -1.11352539 8.91625977 C-1.11712067 8.12504227 -1.12071594 7.33382477 -1.12442017 6.51863098 C-1.11405216 1.11405216 -1.11405216 1.11405216 0 0 Z " fill="#EDF1F7" transform="translate(3,42)"/>
<path d="M0 0 C4.36563955 3.40519885 6.65875906 6.44779007 7.50390625 11.8671875 C7.78817485 17.90101785 6.84570953 21.66735957 3.125 26.4375 C-1.66790347 30.17596471 -5.45084862 31.09093382 -11.51171875 30.82421875 C-16.3324045 30.03537926 -19.01924878 27.38576487 -22.1875 23.875 C-25.12550561 19.63121412 -25.50251971 15.46662225 -24.875 10.4375 C-23.54962562 6.02224679 -21.62666946 2.54027572 -17.75 -0.0625 C-12.13012785 -2.76389777 -5.58998804 -2.77100266 0 0 Z " fill="#EDF1F7" transform="translate(24.875,1.5625)"/>
</svg>
