<svg version="1.2" xmlns="http://www.w3.org/2000/svg" viewBox="0 0 44 30" width="44" height="30">
	<title>Hmenu1-svg</title>
	<defs>
		<linearGradient id="g1" x2="1" gradientUnits="userSpaceOnUse" gradientTransform="matrix(15.217,15.217,-15.217,15.217,21.044,-4.956)">
			<stop offset=".237" stop-color="#3bc9f3"/>
			<stop offset=".85" stop-color="#1591d8"/>
		</linearGradient>
		<linearGradient id="g2" x2="1" gradientUnits="userSpaceOnUse" gradientTransform="matrix(15.217,15.217,-15.217,15.217,13.87,7.044)">
			<stop offset=".237" stop-color="#3bc9f3"/>
			<stop offset=".85" stop-color="#1591d8"/>
		</linearGradient>
		<linearGradient id="g3" x2="1" gradientUnits="userSpaceOnUse" gradientTransform="matrix(15.217,15.217,-15.217,15.217,24.631,19.044)">
			<stop offset=".237" stop-color="#3bc9f3"/>
			<stop offset=".85" stop-color="#1591d8"/>
		</linearGradient>
	</defs>
	<style>
		.s0 { fill: url(#g1) } 
		.s1 { fill: url(#g2) } 
		.s2 { fill: url(#g3) } 
	</style>
	<path id="Layer" class="s0" d="m15 3c0-1.1 0.9-2 2-2h24c1.1 0 2 0.9 2 2 0 1.1-0.9 2-2 2h-24c-1.1 0-2-0.9-2-2z"/>
	<path id="Layer" class="s1" d="m1 15c0-1.1 0.9-2 2-2h38c1.1 0 2 0.9 2 2 0 1.1-0.9 2-2 2h-38c-1.1 0-2-0.9-2-2z"/>
	<path id="Layer" class="s2" d="m22 27c0-1.1 0.9-2 2-2h17c1.1 0 2 0.9 2 2 0 1.1-0.9 2-2 2h-17c-1.1 0-2-0.9-2-2z"/>
</svg>